HIERARCHY
ROOT mug1
{
	OFFSET 0.000000 0.000000 0.000000
	CHANNELS 6 Xposition Yposition Zposition Yrotation Xrotation Zrotation
	End Site
	{
		OFFSET 0.000000 0.000000 0.000000
	}
}
MOTION
Frames: 154
Frame Time: 0.008333334
1.107374 5.874768 4.284600 17.995310 -16.411290 -2.707306 
1.105110 5.875236 4.282284 17.644030 -16.515290 -2.530243 
1.104388 5.876100 4.280326 17.542690 -16.483920 -2.304871 
1.103666 5.876963 4.278368 17.441490 -16.452180 -2.079590 
1.104294 5.878054 4.277057 17.456750 -16.417630 -1.781769 
1.105992 5.879599 4.275935 17.460570 -16.329160 -1.501404 
1.109653 5.881725 4.274629 17.438550 -15.963290 -1.265625 
1.115522 5.884032 4.275064 17.452500 -15.777190 -0.945984 
1.123490 5.887696 4.275231 17.202860 -15.440310 -0.718292 
1.133892 5.892038 4.275056 16.726140 -15.175080 -0.515595 
1.146610 5.897471 4.274812 16.020200 -14.824160 -0.328217 
1.162764 5.903277 4.275218 15.114810 -14.522890 -0.240295 
1.181256 5.910185 4.273958 13.923810 -14.256740 -0.191589 
1.201556 5.916894 4.272295 12.518550 -14.003850 -0.160614 
1.223106 5.924073 4.269377 10.906700 -13.722500 -0.105194 
1.243998 5.931061 4.267423 9.343182 -13.609650 -0.152344 
1.264999 5.938605 4.264850 7.742877 -13.350400 0.000938 
1.283678 5.945636 4.263553 6.131680 -13.172420 0.122915 
1.302111 5.953890 4.263160 4.563062 -12.925960 0.312711 
1.320365 5.961871 4.263947 2.953365 -12.444150 0.719159 
1.338827 5.970176 4.264827 1.286048 -11.864840 1.153468 
1.357478 5.979433 4.267395 -0.610870 -11.424710 1.682634 
1.376771 5.988190 4.268864 -2.732971 -10.697880 2.278907 
1.395742 5.996637 4.269175 -5.100037 -10.103820 2.956579 
1.414478 6.004537 4.269456 -7.717896 -9.504852 3.674521 
1.432791 6.010740 4.268732 -10.476410 -8.751038 4.498585 
1.450532 6.016160 4.266004 -13.479740 -8.132599 5.375683 
1.467661 6.020041 4.262908 -16.597720 -7.339935 6.351645 
1.483122 6.022640 4.260359 -19.677310 -6.534393 7.322838 
1.498054 6.025088 4.257204 -22.587130 -5.652832 8.379714 
1.510987 6.025782 4.253580 -25.256590 -4.740265 9.514683 
1.523919 6.026476 4.249956 -27.905940 -3.775635 10.605150 
1.536852 6.027170 4.246332 -30.532070 -2.762634 11.648080 
1.549081 6.026234 4.240325 -32.793790 -1.772156 12.687420 
1.561309 6.025297 4.234318 -35.036320 -0.741638 13.686450 
1.574527 6.023422 4.227026 -37.175080 0.050020 14.579440 
1.589447 6.019690 4.220332 -39.141750 0.782821 15.364110 
1.604903 6.015843 4.211955 -41.159820 1.449493 16.071120 
1.621297 6.011569 4.204038 -43.212310 2.095959 16.606770 
1.639232 6.006348 4.196179 -45.473180 2.603568 17.010060 
1.657170 6.000741 4.188092 -47.748110 3.091660 17.355420 
1.675423 5.995352 4.181227 -49.922730 3.612015 17.561110 
1.693676 5.989963 4.174361 -52.096830 4.139789 17.746990 
1.709939 5.984571 4.167842 -54.037450 4.616220 17.770970 
1.725958 5.979376 4.162649 -55.655670 4.922576 17.790590 
1.741213 5.974095 4.158157 -56.966640 5.224553 17.783310 
1.755660 5.968132 4.153533 -58.180020 5.428768 17.628930 
1.769457 5.962784 4.149547 -59.286130 5.549490 17.559560 
1.783227 5.956642 4.144824 -60.385990 5.695354 17.471250 
1.796228 5.950396 4.139847 -61.560610 5.783442 17.417550 
1.806946 5.943773 4.135252 -62.886840 5.952106 17.464430 
1.817664 5.937151 4.130658 -64.213350 6.121804 17.507390 
1.824788 5.930140 4.126473 -65.578800 6.362287 17.535450 
1.831911 5.923128 4.122290 -66.944790 6.603363 17.557760 
1.834382 5.916690 4.119670 -68.086300 7.045225 17.623350 
1.836852 5.910252 4.117050 -69.228390 7.488295 17.680110 
1.835849 5.904043 4.115218 -70.017700 7.911227 17.716380 
1.834846 5.897834 4.113386 -70.807620 8.334643 17.746800 
1.833843 5.891624 4.111554 -71.598140 8.758409 17.771340 
1.832849 5.884794 4.109571 -72.172520 9.160374 17.811720 
1.831787 5.878073 4.107953 -72.900820 9.465973 17.907260 
1.830726 5.871351 4.106335 -73.629270 9.772749 17.998950 
1.829062 5.864563 4.104978 -74.385800 10.184230 18.098240 
1.826990 5.857736 4.104725 -75.137420 10.536720 18.176280 
1.824468 5.851448 4.105021 -75.781890 10.951130 18.211180 
1.821386 5.845619 4.104883 -76.401700 11.259080 18.346320 
1.818535 5.839253 4.105274 -76.775670 11.699300 18.402800 
1.816658 5.832885 4.105254 -77.038150 11.956380 18.411380 
1.817048 5.827467 4.105959 -77.008540 11.960930 18.483180 
1.820039 5.822347 4.106844 -76.860810 11.871750 18.428690 
1.824585 5.816821 4.108765 -76.813450 11.660840 18.306460 
1.829623 5.812196 4.110477 -76.859740 11.616940 18.313830 
1.835598 5.807112 4.113095 -76.966490 11.559960 18.145660 
1.840467 5.802854 4.115910 -77.172970 11.647950 18.106820 
1.845337 5.798509 4.119206 -77.442960 11.746730 18.095520 
1.850054 5.793981 4.122614 -77.610080 12.001740 18.012290 
1.854087 5.790144 4.126393 -77.828770 12.094860 17.999170 
1.857899 5.786212 4.129747 -77.976990 12.280080 17.950410 
1.861910 5.782430 4.133849 -78.032810 12.406000 17.863420 
1.866969 5.777625 4.136417 -77.997920 12.534700 17.752320 
1.870884 5.774175 4.139500 -77.954410 12.549350 17.711980 
1.875892 5.769903 4.142513 -77.771450 12.602810 17.561240 
1.881709 5.765274 4.144701 -77.583860 12.487810 17.482590 
1.887525 5.760644 4.146888 -77.396150 12.373050 17.403580 
1.893726 5.755321 4.147980 -77.237920 12.192210 17.396130 
1.899579 5.749209 4.147510 -77.177460 12.012280 17.408810 
1.904771 5.742525 4.146514 -76.981510 12.002140 17.465220 
1.908676 5.735300 4.143791 -76.753720 11.872360 17.627190 
1.911305 5.727176 4.140841 -76.385130 11.874350 17.856230 
1.912580 5.718363 4.137040 -75.787230 11.871990 18.080130 
1.912308 5.709231 4.132125 -75.113190 11.802550 18.484470 
1.911223 5.698864 4.126621 -74.332920 11.810690 18.712190 
1.908927 5.687921 4.119213 -73.613710 11.866300 19.257160 
1.907008 5.675633 4.108147 -73.343840 11.846380 19.882310 
1.906117 5.661831 4.094935 -73.347960 11.936650 20.738420 
1.905988 5.646176 4.080604 -73.326420 12.047550 21.637890 
1.907121 5.629759 4.065242 -73.141330 11.994030 22.527850 
1.909097 5.611989 4.050195 -72.672330 11.778950 23.248650 
1.911073 5.594219 4.035149 -72.206540 11.558120 23.967070 
1.913743 5.574613 4.020634 -71.543520 11.167210 24.341810 
1.915974 5.555091 4.006505 -70.888240 10.730400 24.721110 
1.919421 5.534840 3.992494 -70.223910 10.316520 25.049710 
1.923866 5.514194 3.979486 -69.755710 9.750030 25.269580 
1.928823 5.493682 3.966530 -69.354680 9.186426 25.485840 
1.935791 5.472822 3.955238 -68.976230 8.725324 25.686140 
1.943382 5.452352 3.944400 -68.607120 8.166730 25.863230 
1.950605 5.431907 3.933383 -68.297700 7.612240 26.077870 
1.957417 5.411541 3.923874 -67.943050 7.046039 26.298690 
1.963386 5.392058 3.913859 -67.636570 6.472413 26.422740 
1.969002 5.372910 3.904285 -67.272130 5.844316 26.573640 
1.973619 5.354178 3.895310 -66.915280 5.364512 26.761620 
1.977782 5.336321 3.885841 -66.616940 4.846706 26.854310 
1.980688 5.318377 3.876949 -66.337740 4.472973 26.954230 
1.983354 5.303094 3.868365 -66.107600 3.992883 27.208100 
1.986119 5.287199 3.859474 -66.002960 3.653991 27.204040 
1.989237 5.272947 3.851390 -66.088930 3.240701 27.034760 
1.992978 5.260236 3.844143 -66.122190 2.899627 26.798850 
1.997658 5.248424 3.838108 -66.220580 2.518948 26.309510 
2.002496 5.237857 3.833659 -66.426360 2.228002 25.619260 
2.007837 5.228921 3.830304 -66.646790 1.832926 24.659590 
2.013981 5.221526 3.828497 -66.833770 1.665454 23.563770 
2.020059 5.215015 3.827181 -67.149140 1.484747 22.351310 
2.025763 5.209545 3.826262 -67.382020 1.479336 21.145550 
2.031163 5.204907 3.824928 -67.615170 1.524759 19.955110 
2.035684 5.200392 3.822754 -67.762570 1.660860 18.778150 
2.039579 5.196175 3.819100 -67.807400 1.774317 17.525670 
2.042490 5.191841 3.814685 -67.756100 2.008138 16.250350 
2.044948 5.187460 3.807842 -67.635250 2.133555 15.051040 
2.046762 5.183199 3.798613 -67.292850 2.344600 13.905660 
2.047745 5.178982 3.787875 -66.796110 2.629210 12.710310 
2.047886 5.175333 3.775046 -66.246460 2.793227 11.668010 
2.047484 5.171426 3.760979 -65.651860 2.842012 10.696300 
2.046354 5.167387 3.744954 -65.036320 3.045499 9.692373 
2.044377 5.163651 3.727514 -64.390380 3.289601 8.728113 
2.041974 5.160227 3.708996 -63.762910 3.403128 7.916342 
2.038840 5.158216 3.688624 -63.099270 3.556745 7.125789 
2.035005 5.156667 3.667094 -62.495700 3.627204 6.574104 
2.030054 5.155751 3.644756 -61.973480 3.838040 5.999964 
2.024620 5.156239 3.622611 -61.537260 4.033960 5.611228 
2.018657 5.158238 3.600443 -61.188390 4.254960 5.134001 
2.013071 5.161541 3.579731 -60.840090 4.580509 4.453846 
2.006830 5.165450 3.560286 -60.660950 4.884077 3.731807 
2.001187 5.169951 3.541979 -60.533510 5.267885 2.813930 
1.994745 5.174950 3.523951 -60.584440 5.614066 1.863297 
1.987934 5.180401 3.506240 -60.676700 5.876097 0.912584 
1.980931 5.187215 3.489004 -60.849300 6.097717 0.060701 
1.973682 5.194881 3.471377 -61.068730 6.339886 -0.746552 
1.966483 5.203479 3.454686 -61.354190 6.705349 -1.627686 
1.959016 5.213242 3.438298 -61.655430 6.880652 -2.485474 
1.951080 5.223418 3.422161 -62.073300 7.225847 -3.495941 
1.943051 5.234602 3.406442 -62.408140 7.407744 -4.390381 
1.935111 5.247315 3.390638 -62.761050 7.639758 -5.289398 
1.926674 5.261135 3.375313 -63.132020 7.926376 -6.165344 
1.917253 5.275916 3.359648 -63.449710 8.133305 -6.964508 
